<svg width="1138" height="351" viewBox="0 0 1138 351" fill="none" xmlns="http://www.w3.org/2000/svg">
<path d="M1048.6 261.9V208.8H994.597V192.9H1048.6V171H994.597V155.4H1041.7L987.097 48H1015.9L1042 105.6C1048.6 120.3 1054.9 135 1062.1 150.9H1063.6C1070.8 135 1077.1 120.3 1084 105.6L1110.4 48H1138L1082.8 155.4H1130.5V171H1075.9V192.9H1130.5V208.8H1075.9V261.9H1048.6Z" fill="#D8AE69"/>
<path d="M61.5969 213.9V160.8H7.59688V144.9H61.5969V123H7.59688V107.4H54.6969L0.0968781 0H28.8969L54.9969 57.6C61.5969 72.3 67.8969 87 75.0969 102.9H76.5969C83.7969 87 90.0969 72.3 96.9969 57.6L123.397 0H150.997L95.7969 107.4H143.497V123H88.8969V144.9H143.497V160.8H88.8969V213.9H61.5969Z" fill="#D8AE69"/>
<path d="M313.866 243.9V226.2H295.866V220.9H313.866V213.6H295.866V208.4H311.566L293.366 172.6H302.966L311.666 191.8C313.866 196.7 315.966 201.6 318.366 206.9H318.866C321.266 201.6 323.366 196.7 325.666 191.8L334.466 172.6H343.666L325.266 208.4H341.166V213.6H322.966V220.9H341.166V226.2H322.966V243.9H313.866Z" fill="#D8AE69"/>
<path d="M832.866 127.9V110.2H814.866V104.9H832.866V97.6H814.866V92.4H830.566L812.366 56.6H821.966L830.666 75.8C832.866 80.7 834.966 85.6 837.366 90.9H837.866C840.266 85.6 842.366 80.7 844.666 75.8L853.466 56.6H862.666L844.266 92.4H860.166V97.6H841.966V104.9H860.166V110.2H841.966V127.9H832.866Z" fill="#D8AE69"/>
<path d="M614.231 350.9V315.5H578.231V304.9H614.231V290.3H578.231V279.9H609.631L573.231 208.3H592.431L609.831 246.7C614.231 256.5 618.431 266.3 623.231 276.9H624.231C629.031 266.3 633.231 256.5 637.831 246.7L655.431 208.3H673.831L637.031 279.9H668.831V290.3H632.431V304.9H668.831V315.5H632.431V350.9H614.231Z" fill="#D8AE69"/>
</svg>
